<svg width="513" height="512" viewBox="0 0 513 512" fill="none" xmlns="http://www.w3.org/2000/svg">
<g clip-path="url(#clip0_105_2108)">
<path d="M512.988 256C512.988 397.384 398.372 512 256.988 512C115.604 512 0.988281 397.384 0.988281 256C0.988281 256.061 256.988 0.028 256.988 0C398.372 0 512.988 114.616 512.988 256Z" fill="#FFDA44"/>
<path d="M256.988 122.435V208.778L167.945 122.435H256.988Z" fill="#0052B4"/>
<path d="M134.553 256H209.764L134.553 155.826L123.423 233.739L134.553 256Z" fill="#0052B4"/>
<path d="M256.304 256H256.989C256.989 255.77 256.989 255.546 256.989 255.315C256.761 255.544 256.533 255.772 256.304 256Z" fill="#F0F0F0"/>
<path d="M256.988 133.565C256.988 88.52 256.988 59.005 256.988 0H256.945C115.579 0.024 0.988281 114.629 0.988281 256H134.553V180.789L209.764 256H256.304C256.532 255.772 256.76 255.544 256.989 255.315C256.989 238.068 256.989 222.679 256.989 208.778L181.776 133.565H256.988Z" fill="#F0F0F0"/>
<path d="M256.988 224.519L166.033 133.566H134.553V133.568L256.986 256H256.988C256.988 256 256.988 234.293 256.988 224.519Z" fill="#D80027"/>
<path d="M130.503 33.391C120.634 39.011 111.179 45.274 102.187 52.111H112.691L84.9289 72.285L95.5309 104.922L67.7689 84.752L64.8149 86.899C53.2879 99.989 43.0679 114.257 34.3789 129.515V256H101.162V100.176V100.174H256.988C256.988 79.111 256.988 59.045 256.988 33.391H130.503Z" fill="#D80027"/>
<path d="M110.349 46.152C107.588 48.085 104.866 50.072 102.185 52.111L84.9296 72.285L67.7696 84.751L64.7906 86.915C58.5046 94.055 52.6096 101.547 47.1396 109.36C53.3746 112.386 60.3736 114.087 67.7696 114.087C93.8956 114.087 115.074 92.909 115.074 66.783C115.076 59.385 113.376 52.388 110.349 46.152Z" fill="#0052B4"/>
<path d="M64.791 86.915L67.77 84.751L95.532 104.922L84.929 72.285L112.689 52.111H102.183C88.589 62.45 76.062 74.114 64.791 86.915Z" fill="#FFDA44"/>
<path d="M177.93 44.522L183.456 61.527H201.336L186.871 72.038L192.394 89.043L177.93 78.533L163.465 89.043L168.987 72.038L154.522 61.527H172.403L177.93 44.522Z" fill="#FFDA44"/>
<path d="M67.7713 155.826L73.2973 172.831H91.1773L76.7133 183.343L82.2363 200.348L67.7713 189.837L53.3053 200.348L58.8283 183.343L44.3643 172.831H62.2443L67.7713 155.826Z" fill="#FFDA44"/>
</g>
<defs>
<clipPath id="clip0_105_2108">
<rect width="512" height="512" fill="white" transform="translate(0.988281)"/>
</clipPath>
</defs>
</svg>
